<svg id="Capa_1" enable-background="new 0 0 512 512" height="512" viewBox="0 0 512 512" width="512" xmlns="http://www.w3.org/2000/svg"><g><g id="Headphone_1_"><g><path d="m165 481h-60c-24.814 0-45-20.186-45-45v-150c0-24.814 20.186-45 45-45h60c8.291 0 15 6.709 15 15v210c0 8.291-6.709 15-15 15z"/></g><g><path d="m407 481h-60c-8.291 0-15-6.709-15-15v-210c0-8.291 6.709-15 15-15h60c24.814 0 45 20.186 45 45v150c0 24.814-20.186 45-45 45z"/></g></g><path d="m481.24 271h30c-7.831-133.616-119.693-240-255.24-240s-247.409 106.384-255.24 240h30c7.775-117.072 106.231-210 225.24-210s217.465 92.928 225.24 210z"/><path d="m30 301h-15c-8.291 0-15 6.709-15 15v90c0 8.291 6.709 15 15 15h15z"/><path d="m497 301h-15v120h15c8.291 0 15-6.709 15-15v-90c0-8.291-6.709-15-15-15z"/></g></svg>